<svg xmlns="http://www.w3.org/2000/svg" viewBox="0 0 203.854 223.315"><g data-name="Layer 2"><g data-name="ART"><path d="M151.503 210.305c0 6.633-22.196 12.01-49.576 12.01s-49.577-5.377-49.577-12.01c0-3.653 6.732-27.908 17.355-30.11 8.665-1.797 19.92 1.314 32.222 1.314 11.873 0 22.77-3.186 31.307-1.5 11.15 2.203 18.27 26.54 18.27 30.296z" fill="#357fc1"/><path d="M101.927 223.315c-24.519 0-50.577-4.56-50.577-13.01 0-4.13 6.77-28.73 18.152-31.09 5.26-1.09 11.458-.424 18.019.282a133.314 133.314 0 0014.406 1.011 121.59 121.59 0 0014.153-1.073c6.286-.73 12.223-1.42 17.348-.407 11.851 2.342 19.075 27.587 19.075 31.277 0 8.45-26.058 13.01-50.576 13.01zM75.9 180.639a29.63 29.63 0 00-5.993.535c-4.1.85-8.345 5.8-11.95 13.937-2.981 6.73-4.608 13.567-4.608 15.194 0 5.207 19.95 11.01 48.577 11.01s48.576-5.803 48.576-11.01c0-1.646-1.716-8.542-4.86-15.31-3.8-8.176-8.276-13.15-12.602-14.004-4.82-.952-10.604-.281-16.73.43a123.082 123.082 0 01-14.384 1.087 134.79 134.79 0 01-14.62-1.023 110.127 110.127 0 00-11.406-.846z" fill="#3e4147"/><path d="M202.853 157.009c0 13.503-45.186 36.2-100.926 36.2S1 170.512 1 157.01s45.186-12.7 100.927-12.7 100.926-.803 100.926 12.7z" fill="#357fc1"/><path d="M101.927 194.21c-34.124 0-59.595-8.213-71.74-13.11C11.567 173.595 0 164.364 0 157.01c0-8.435 14.737-10.926 27.577-12.155 16.609-1.59 39.238-1.564 65.446-1.55l8.904.004 8.903-.005c26.214-.015 48.839-.038 65.446 1.551 12.84 1.229 27.578 3.72 27.578 12.154 0 7.355-11.568 16.586-30.187 24.091-12.146 4.897-37.616 13.11-71.74 13.11zM84.394 145.3c-22.498 0-41.96.143-56.626 1.546C10.428 148.504 2 151.83 2 157.01c0 6.325 11.628 15.26 28.935 22.237 12.011 4.841 37.206 12.964 70.992 12.964s58.98-8.123 70.992-12.964c17.307-6.977 28.935-15.912 28.935-22.237 0-5.18-8.43-8.505-25.768-10.163-16.512-1.58-39.107-1.563-65.254-1.542l-8.905.005-8.906-.005-8.627-.004z" fill="#3e4147"/><ellipse cx="101.927" cy="156.17" rx="100.927" ry="24.45" fill="#4495d7"/><path d="M101.927 181.62C44.77 181.62 0 170.44 0 156.17s44.771-25.45 101.927-25.45 101.927 11.178 101.927 25.45-44.772 25.45-101.927 25.45zm0-48.9C47.76 132.72 2 143.458 2 156.17s45.76 23.45 99.927 23.45 99.927-10.74 99.927-23.45-45.761-23.45-99.927-23.45z" fill="#3e4147"/><path d="M176.415 88.756a5.201 5.201 0 00-5.186-5.187H32.624a5.201 5.201 0 00-5.186 5.187v63.067c0 .025.003.05.004.076 0 .025-.004.05-.004.074 0 9.966 33.35 18.045 74.489 18.045s74.488-8.079 74.488-18.045c0-.025-.003-.05-.004-.074 0-.026.004-.05.004-.076z" fill="#fff8e9"/><path d="M101.927 171.018c-37.108 0-75.49-7.124-75.49-19.045 0-.026.003-.09.005-.117l-.005-63.1a6.193 6.193 0 016.187-6.186h138.605a6.193 6.193 0 016.186 6.185v63.068l-.005.115c.005 11.956-38.377 19.08-75.483 19.08zM32.624 84.57a4.19 4.19 0 00-4.187 4.185v63.26c0 8.19 29.53 17.003 73.49 17.003s73.488-8.813 73.488-17.045c0-.012-.004-.1-.003-.112l.003-63.106a4.19 4.19 0 00-4.187-4.185z" fill="#3e4147"/><ellipse cx="101.927" cy="88.605" rx="74.489" ry="18.045" fill="#fff8e9"/><path d="M101.927 107.65c-37.108 0-75.49-7.124-75.49-19.045S64.82 69.56 101.927 69.56c37.106 0 75.488 7.124 75.488 19.045s-38.382 19.045-75.488 19.045zm0-36.09c-43.96 0-73.49 8.814-73.49 17.045s29.53 17.045 73.49 17.045 73.488-8.814 73.488-17.045-29.53-17.045-73.488-17.045z" fill="#3e4147"/><path d="M114.851 76.995a88.888 88.888 0 00-18.705 1.821c-4.204-1.95-11.02-3.22-18.72-3.22-12.774 0-23.13 3.492-23.13 7.799s10.356 7.798 23.13 7.798A60.227 60.227 0 0089.716 90c5.381 2.277 14.627 3.781 25.135 3.781 16.619 0 30.09-3.758 30.09-8.393s-13.471-8.393-30.09-8.393z" fill="#eae4c9"/><rect x="120.811" y="197.715" width="14.793" height="14.793" rx="6.477" transform="rotate(-20.253 128.207 205.112)" fill="#4495d7"/><path d="M78.426 34.89s-5.665-1.47-8.393 9.652c0 0-4.567 19.217-4.64 36.452a5.274 5.274 0 002.586 4.545c3.71 2.213 11.64 4.97 25.024.648a5.275 5.275 0 003.566-5.91l-6.393-37.414s-1.049-11.12-11.75-7.974z" fill="#fff"/><path d="M79.918 89.234a23.796 23.796 0 01-12.337-3.027 6.08 6.08 0 01-2.966-5.215c.073-17.128 4.615-36.437 4.661-36.63 1.174-4.786 3.03-7.964 5.52-9.45a5.521 5.521 0 013.588-.82c3.308-.936 6.092-.662 8.275.819 3.747 2.537 4.27 7.662 4.291 7.879l6.385 37.357a6.08 6.08 0 01-4.093 6.78 43.438 43.438 0 01-13.324 2.307zm-2.187-53.638c-1.326 0-4.904.818-6.943 9.131-.044.186-4.545 19.325-4.618 36.27a4.516 4.516 0 002.208 3.874c3.432 2.048 11.162 4.846 24.386.576a4.515 4.515 0 003.038-5.038l-6.393-37.415c-.012-.103-.491-4.682-3.629-6.801-1.818-1.228-4.217-1.416-7.134-.558a.822.822 0 01-.408.01 2.338 2.338 0 00-.507-.049z" fill="#ecedee"/><path d="M79.919 89.456a24.018 24.018 0 01-12.452-3.059 6.301 6.301 0 01-3.074-5.406c.074-17.154 4.622-36.488 4.668-36.68 1.188-4.849 3.079-8.073 5.62-9.59a5.732 5.732 0 013.692-.857c3.354-.936 6.183-.648 8.411.862 3.832 2.596 4.366 7.821 4.387 8.043l6.383 37.34a6.3 6.3 0 01-4.243 7.03 43.612 43.612 0 01-13.392 2.317zM77.737 35.82c-1.244 0-4.725.774-6.732 8.96-.044.183-4.54 19.3-4.612 36.219a4.294 4.294 0 002.1 3.681c3.397 2.029 11.063 4.8 24.202.556a4.292 4.292 0 002.888-4.79L89.19 43.032c-.014-.117-.486-4.597-3.537-6.655-1.758-1.186-4.095-1.364-6.945-.528a.994.994 0 01-.521.012 2.214 2.214 0 00-.45-.04z" fill="#3e4147"/><circle cx="80.209" cy="25.552" r="14.793" fill="#fff8e9"/><path d="M80.209 41.345a15.793 15.793 0 1115.793-15.793 15.81 15.81 0 01-15.793 15.793zm0-29.586a13.793 13.793 0 1013.793 13.793A13.808 13.808 0 0080.209 11.76z" fill="#3e4147"/><path d="M94.448 19.283s.025-7.614-9.098-11.01c0 0-14.688-3.179-19.724 8.571 0 0-5.735 11.89 20.284-.14 0 0 9.103 10.054 8.538 2.58z" fill="#3e4147"/><path d="M69.03 22.867a5.103 5.103 0 01-3.781-1.224c-1.858-1.889-.387-5.005-.323-5.137C70.14 4.34 85.364 7.478 85.515 7.513a.8.8 0 01.107.031c9.161 3.41 9.584 11.053 9.603 11.699.053.712.198 2.794-1.272 3.425-2.268.976-6.49-3.158-8.231-5.021-7.62 3.487-13.145 5.22-16.692 5.22zM80.871 8.634c-4.54 0-11.434 1.293-14.53 8.517-.025.052-1.058 2.315.02 3.404.882.893 4.527 2.239 19.223-4.556a.777.777 0 01.902.184c2.47 2.724 5.896 5.48 6.853 5.056.214-.092.429-.644.334-1.898a1.183 1.183 0 01-.002-.06c-.001-.3-.126-7.1-8.537-10.259a22.505 22.505 0 00-4.263-.388zM96.569 80.278l-6.12-35.814C85.799 55.85 78.637 61.507 78.637 61.507a53.445 53.445 0 01-8.903-15.64c-1.017 4.63-4.278 20.584-4.34 35.127a5.274 5.274 0 002.586 4.545c3.71 2.213 11.64 4.97 25.024.648a5.275 5.275 0 003.566-5.91z" fill="#3e4147"/><path d="M79.918 89.234a23.796 23.796 0 01-12.337-3.027 6.08 6.08 0 01-2.966-5.215c.063-14.634 3.353-30.712 4.359-35.291a.778.778 0 01.714-.61.746.746 0 01.78.52 52.465 52.465 0 008.275 14.776A45.657 45.657 0 0089.73 44.17a.764.764 0 01.805-.478.777.777 0 01.682.642l6.118 35.813a6.08 6.08 0 01-4.093 6.78 43.438 43.438 0 01-13.324 2.307zM69.95 48.602c-1.312 6.444-3.726 19.96-3.78 32.396a4.516 4.516 0 002.208 3.873c3.432 2.048 11.162 4.846 24.386.576a4.515 4.515 0 003.038-5.038L90.12 47.152c-4.615 9.842-10.724 14.746-11.002 14.966a.78.78 0 01-1.09-.125 56.768 56.768 0 01-8.078-13.39z" fill="#3e4147"/><path d="M114.516 13.277l7.764 7.344s5.245 42.805 21.402 60.01l-47.84-3.356s-5.666-27.488 1.049-53.297" fill="#fff"/><path d="M143.683 81.409a.522.522 0 01-.055-.002l-47.84-3.357a.778.778 0 01-.708-.618c-.057-.277-5.625-27.962 1.058-53.65a.788.788 0 01.948-.557.779.779 0 01.558.948c-6.063 23.302-1.904 48.285-1.15 52.369l45.34 3.18c-14.658-17.382-19.786-54.795-20.29-58.727l-7.562-7.154a.777.777 0 011.069-1.129l7.764 7.345a.77.77 0 01.237.47c.053.426 5.401 42.75 21.197 59.572a.777.777 0 01-.566 1.31z" fill="#ecedee"/><path d="M143.683 81.631q-.036 0-.07-.003L95.77 78.272a1 1 0 01-.909-.795c-.056-.277-5.635-28.014 1.06-53.75a1 1 0 011.936.503c-5.973 22.959-2.003 47.556-1.177 52.102l44.65 3.131c-14.352-17.487-19.441-54.056-19.998-58.36l-7.504-7.1a1 1 0 011.375-1.453l7.764 7.345a1.001 1.001 0 01.304.605c.053.424 5.393 42.68 21.14 59.447a1 1 0 01-.73 1.684z" fill="#3e4147"/><path d="M96.121 12.648l-3.91 5.125s-.6 25.51 5.05 32.224l3.337 1.259s22.47.56 22.076-13.569l-2.353-17.346s-15.807-14.268-24.2-7.693z" fill="#a57f53"/><path d="M101.019 52.26c-.243 0-.396-.003-.446-.004a1 1 0 01-.329-.064l-3.337-1.26a1 1 0 01-.41-.292c-5.828-6.923-5.31-31.834-5.285-32.89a1.001 1.001 0 01.205-.583l3.91-5.125a1.01 1.01 0 01.178-.181c8.947-7.01 24.815 7.133 25.486 7.738a1.002 1.002 0 01.321.608l2.353 17.345a1 1 0 01.009.107 11.224 11.224 0 01-3.314 8.56c-5.706 5.724-16.926 6.041-19.341 6.041zm-.233-2.002c1.496.02 12.847-.119 18.16-5.453a9.285 9.285 0 002.73-7.038l-2.295-16.92c-2.07-1.782-15.447-12.845-22.545-7.487l-3.63 4.759c-.042 2.924-.188 24.805 4.661 31.038z" fill="#3e4147"/><path d="M105.913 31.952s-7.763.84-8.393 15.527l-3.467 33.706a6.088 6.088 0 002.835 5.78c5.563 3.487 19.847 7.988 52.989-1.211a1.983 1.983 0 00.363-3.679c-8.691-4.44-26.568-16.971-35.724-47.747 0 0-.043-3.18-8.603-2.376z" fill="#fff"/><path d="M116.268 91.96c-10.595 0-16.594-2.33-19.793-4.335a6.825 6.825 0 01-3.195-6.52L96.747 47.4c.647-15.135 8.738-16.184 9.082-16.222h.01c4.184-.397 7.052.075 8.521 1.397a2.635 2.635 0 01.924 1.606c8.927 29.933 25.951 42.421 35.31 47.201a2.76 2.76 0 01-.51 5.12c-14.599 4.053-25.593 5.459-33.816 5.459zm-10.27-59.235c-.365.047-7.115 1.116-7.701 14.787l-3.47 33.752a5.276 5.276 0 002.474 5.042c5.464 3.425 19.535 7.81 52.368-1.302a1.173 1.173 0 00.873-1.035 1.186 1.186 0 00-.655-1.202c-9.588-4.897-27.03-17.674-36.116-48.217a.772.772 0 01-.032-.21c-.072-.62-1.611-2.197-7.742-1.615z" fill="#ecedee"/><path d="M116.272 92.18c-10.657 0-16.695-2.348-19.916-4.367a7.046 7.046 0 01-3.297-6.73l3.466-33.706c.655-15.31 8.93-16.381 9.28-16.42l.014-.001c4.246-.399 7.172.09 8.69 1.454a2.88 2.88 0 01.993 1.722c8.904 29.845 25.868 42.288 35.193 47.052a2.984 2.984 0 01-.55 5.533c-14.612 4.056-25.625 5.463-33.873 5.463zm-10.25-59.234c-.377.052-6.927 1.148-7.502 14.576l-3.471 33.766a5.055 5.055 0 002.37 4.83c5.434 3.406 19.44 7.762 52.19-1.328a.954.954 0 00.711-.843.97.97 0 00-.535-.982c-9.619-4.914-27.117-17.728-36.226-48.351a.984.984 0 01-.042-.272c-.09-.53-1.62-1.946-7.495-1.396z" fill="#3e4147"/><circle cx="107.487" cy="21.985" r="14.793" fill="#fff8e9"/><path d="M107.487 37.778a15.793 15.793 0 1115.793-15.793 15.811 15.811 0 01-15.793 15.793zm0-29.586a13.793 13.793 0 1013.793 13.793 13.809 13.809 0 00-13.793-13.793z" fill="#3e4147"/><path d="M100.038 12.368s1.403 10.981 18.607 13.184c0 0 2.236 19.55-3.5 24.445 0 0 10.218-.629 11.054-8.707 0 0 .002-27.103-7.554-32.14 0 0-10.913-8.532-20.985 0 0 0-8.393 2.099-4.966 21.683 0 0 .63-13.29 7.344-18.465z" fill="#a57f53"/><path d="M115.146 50.997a1 1 0 01-.65-1.761c4.173-3.562 3.805-16.988 3.237-22.8-13.174-1.935-17.113-8.938-18.249-12.227-5.197 5.408-5.785 16.551-5.79 16.67a1 1 0 01-.937.952 1.019 1.019 0 01-1.048-.826c-3.258-18.617 3.965-22.21 5.458-22.746 10.53-8.744 21.98.014 22.095.104 7.848 5.227 7.937 31.798 7.937 32.927 0 .034-.002.068-.005.103-.731 7.057-8.16 9.366-11.987 9.602l-.061.002zm-14.117-38.76c.058.417 1.587 10.255 17.743 12.323a.999.999 0 01.867.879c.084.73 1.785 16.144-2.137 23.161 2.824-.688 7.167-2.528 7.697-7.363-.007-7.433-1.292-27.378-7.108-31.254-.48-.37-10.467-7.96-19.784-.07a.991.991 0 01-.405.208c-.051.015-5.296 1.637-5.015 13.103 1.04-4.11 2.973-8.9 6.54-11.648a1 1 0 011.602.66z" fill="#3e4147"/><path d="M126.138 12.746a3.4 3.4 0 00-.99-.281 3.398 3.398 0 00.596-.839 2.378 2.378 0 10-4.287-2.058 3.401 3.401 0 00-.282.99 3.399 3.399 0 00-.838-.596 2.378 2.378 0 10-2.058 4.288 3.295 3.295 0 00.855.26 2.936 2.936 0 00-.25.418 2.378 2.378 0 004.288 2.058 2.935 2.935 0 00.17-.457 3.296 3.296 0 00.738.505 2.378 2.378 0 102.058-4.288z" fill="#fff8e9"/><path d="M121.025 19.115a3.16 3.16 0 01-3.002-4.126l-.08-.038a3.156 3.156 0 012.73-5.69c.02.008.038.018.056.028l.027-.057a3.156 3.156 0 115.69 2.731 1.489 1.489 0 01-.03.056l.059.026v.001a3.155 3.155 0 11-2.732 5.689l-.08-.04a3.125 3.125 0 01-1.589 1.24 3.168 3.168 0 01-1.049.18zm-1.714-8.61a1.601 1.601 0 00-1.513 2.131 1.587 1.587 0 00.817.912 2.538 2.538 0 00.65.195.778.778 0 01.505 1.214 2.2 2.2 0 00-.186.31 1.6 1.6 0 002.887 1.383 2.334 2.334 0 00.124-.336.778.778 0 011.262-.367 2.517 2.517 0 00.559.386 1.6 1.6 0 101.385-2.885v-.001a2.625 2.625 0 00-.76-.212.778.778 0 01-.457-1.306 2.605 2.605 0 00.46-.64 1.6 1.6 0 00-2.886-1.384 2.63 2.63 0 00-.214.76.774.774 0 01-.512.626.782.782 0 01-.791-.168 2.635 2.635 0 00-.641-.461 1.596 1.596 0 00-.69-.158z" fill="#3e4147"/><path d="M106.24 3.407a4.526 4.526 0 00-.945.387 1.91 1.91 0 00-.025-.765c-.25-.932-1.482-1.411-2.75-1.07-1.269.34-2.094 1.373-1.843 2.305a1.91 1.91 0 00.361.674 4.525 4.525 0 00-1.012.14c-1.268.34-2.093 1.372-1.843 2.304s1.482 1.411 2.75 1.07a4.404 4.404 0 00.828-.325 1.604 1.604 0 00.05.356c.25.932 1.482 1.411 2.75 1.07 1.268-.34 2.093-1.373 1.843-2.305a1.604 1.604 0 00-.136-.333 4.406 4.406 0 00.88-.133c1.268-.34 2.093-1.373 1.843-2.305s-1.482-1.411-2.75-1.07z" fill="#fff8e9"/><path d="M103.731 10.443a2.756 2.756 0 01-2.475-1.274 2.73 2.73 0 01-.12.034 3.633 3.633 0 01-2.241-.083 2.33 2.33 0 01-1.462-1.536 2.332 2.332 0 01.495-2.062 3.635 3.635 0 011.896-1.195l.067-.017a2.91 2.91 0 012.426-3.102 3.651 3.651 0 012.242.084 2.363 2.363 0 011.414 1.382l.064-.018h.001c1.716-.457 3.336.253 3.704 1.619.366 1.368-.684 2.799-2.392 3.258l-.122.031a3.03 3.03 0 01-2.464 2.74 4.013 4.013 0 01-1.033.139zm-1.97-3.094a.778.778 0 01.777.747.8.8 0 00.025.188c.119.44.89.763 1.796.518.912-.245 1.413-.909 1.294-1.352a.817.817 0 00-.07-.168.778.778 0 01.642-1.144 3.572 3.572 0 00.72-.106c.911-.246 1.414-.91 1.295-1.354-.119-.441-.885-.766-1.798-.52a3.744 3.744 0 00-.778.32.778.778 0 01-1.139-.799 1.08 1.08 0 00-.006-.447.827.827 0 00-.525-.491 2.092 2.092 0 00-1.272-.031c-.911.244-1.413.909-1.294 1.353a1.156 1.156 0 00.218.392.777.777 0 01-.585 1.26 3.653 3.653 0 00-.833.114 2.094 2.094 0 00-1.086.665.823.823 0 00-.208.686.828.828 0 00.525.49 2.1 2.1 0 001.272.032 3.659 3.659 0 00.68-.27.777.777 0 01.35-.083z" fill="#3e4147"/><path d="M114.895 3.256a4.022 4.022 0 00-1.003.208 2.408 2.408 0 00.12-.853 2.418 2.418 0 00-4.746.3 2.41 2.41 0 00.227.83 4.021 4.021 0 00-1.02-.08 2.207 2.207 0 00-2.249 2.126 2.207 2.207 0 002.498 1.828 3.909 3.909 0 00.875-.169 2.05 2.05 0 00-.019.407 2.418 2.418 0 004.747-.3 2.05 2.05 0 00-.07-.4 3.91 3.91 0 00.889.057 2.207 2.207 0 002.249-2.127 2.207 2.207 0 00-2.498-1.827z" fill="#fff8e9"/><path d="M111.896 10.463a3.041 3.041 0 01-3.015-2.08l-.11.008a2.978 2.978 0 01-3.324-2.555 2.983 2.983 0 012.977-2.952l.063-.003a2.587 2.587 0 01.852-1.978 3.503 3.503 0 014.35-.274 2.586 2.586 0 011.093 1.855c.022-.003.057-.012.064-.005a2.977 2.977 0 013.323 2.555 2.582 2.582 0 01-.849 2.055 3.399 3.399 0 01-2.128.897 3.978 3.978 0 01-.11.005 3.075 3.075 0 01-2.957 2.466 3.622 3.622 0 01-.23.006zm-2.3-3.794a.778.778 0 01.771.883 1.254 1.254 0 00-.013.254 1.44 1.44 0 001.673 1.098c.866-.055 1.563-.65 1.522-1.302a1.284 1.284 0 00-.045-.248.778.778 0 01.882-.969 3.197 3.197 0 00.708.048 1.843 1.843 0 001.158-.473 1.052 1.052 0 00.364-.829 1.457 1.457 0 00-1.672-1.1 3.246 3.246 0 00-.803.17.777.777 0 01-.99-.968 1.657 1.657 0 00.085-.573 1.051 1.051 0 00-.466-.776 1.955 1.955 0 00-2.363.149 1.052 1.052 0 00-.364.828 1.635 1.635 0 00.157.557.78.78 0 01-.096.806.79.79 0 01-.762.28 3.13 3.13 0 00-.822-.067c-.864.055-1.561.65-1.52 1.302a1.438 1.438 0 001.673 1.1 3.092 3.092 0 00.696-.136.756.756 0 01.228-.034z" fill="#3e4147"/><path d="M119.533 3.412a2.747 2.747 0 00-.756.529 3.767 3.767 0 00-.271-.989 2.262 2.262 0 00-2.911-1.303 2.262 2.262 0 00-.97 3.039 3.77 3.77 0 00.557.861 2.747 2.747 0 00-.898.211 2.262 2.262 0 00-.969 3.038 2.262 2.262 0 002.91 1.304 2.656 2.656 0 00.666-.447 3.275 3.275 0 00.162.46 2.262 2.262 0 002.911 1.303 2.262 2.262 0 00.969-3.039 3.276 3.276 0 00-.234-.427 2.657 2.657 0 00.776-.198 2.262 2.262 0 00.969-3.039 2.262 2.262 0 00-2.911-1.303z" fill="#fff8e9"/><path d="M119.175 12.364a2.891 2.891 0 01-1.185-.259 3.255 3.255 0 01-1.448-1.294 2.762 2.762 0 01-2.29-.022 3.36 3.36 0 01-1.796-4.016 2.769 2.769 0 011.486-1.71 1.4 1.4 0 01-.025-.057 3.042 3.042 0 011.36-4.067 3.043 3.043 0 013.939 1.696l.024.057a2.784 2.784 0 012.267.033 3.36 3.36 0 011.796 4.016 2.77 2.77 0 01-1.51 1.721 3.254 3.254 0 01-.001 1.943 2.77 2.77 0 01-1.51 1.723 2.697 2.697 0 01-1.107.236zm-2.284-3.487a.763.763 0 01.217.032.776.776 0 01.53.535 2.532 2.532 0 00.126.352 1.732 1.732 0 00.862.89 1.194 1.194 0 001.685-.754 1.733 1.733 0 00-.088-1.235 2.412 2.412 0 00-.178-.324.778.778 0 01.565-1.194 1.892 1.892 0 00.544-.134 1.24 1.24 0 00.667-.777 1.807 1.807 0 00-.95-2.124 1.239 1.239 0 00-1.02-.021h-.002a1.944 1.944 0 00-.535.38.787.787 0 01-.79.173.777.777 0 01-.516-.625 3.05 3.05 0 00-.212-.782 1.489 1.489 0 00-1.884-.91 1.493 1.493 0 00-.576 2.012 3.015 3.015 0 00.441.678.778.778 0 01-.536 1.276 1.963 1.963 0 00-.638.144 1.238 1.238 0 00-.665.777 1.807 1.807 0 00.95 2.124 1.239 1.239 0 001.02.021 1.888 1.888 0 00.464-.315.775.775 0 01.519-.199zm2.642-5.464z" fill="#3e4147"/><path d="M111.649 9.75a3.4 3.4 0 00-1.014.175 3.398 3.398 0 00.174-1.013 2.378 2.378 0 10-4.756 0 3.401 3.401 0 00.174 1.013 3.399 3.399 0 00-1.013-.174 2.378 2.378 0 100 4.756 3.295 3.295 0 00.883-.136 2.935 2.935 0 00-.044.486 2.378 2.378 0 004.756 0 2.936 2.936 0 00-.044-.486 3.296 3.296 0 00.884.136 2.378 2.378 0 100-4.756z" fill="#fff8e9"/><path d="M108.432 18.012a3.16 3.16 0 01-3.128-2.728 3.156 3.156 0 11-.029-6.31v-.062a3.156 3.156 0 016.312 0v.061a3.156 3.156 0 11-.028 6.31 3.16 3.16 0 01-3.127 2.73zm-2.334-4.419a.777.777 0 01.766.907 2.208 2.208 0 00-.034.357 1.601 1.601 0 003.202 0 2.209 2.209 0 00-.034-.357.778.778 0 01.98-.877 2.524 2.524 0 00.67.107 1.601 1.601 0 000-3.202 2.629 2.629 0 00-.777.138.772.772 0 01-.786-.19.78.78 0 01-.191-.787 2.629 2.629 0 00.138-.777 1.601 1.601 0 00-3.202 0 2.629 2.629 0 00.139.777.777.777 0 01-.978.976 2.651 2.651 0 00-.777-.137 1.601 1.601 0 000 3.202 2.524 2.524 0 00.67-.107.794.794 0 01.214-.03z" fill="#3e4147"/><path d="M119.686 11.106a3.4 3.4 0 00-1.027-.056 3.398 3.398 0 00.396-.95 2.378 2.378 0 10-4.637-1.059 3.401 3.401 0 00-.056 1.027 3.4 3.4 0 00-.95-.396 2.378 2.378 0 10-1.059 4.637 3.295 3.295 0 00.892.064 2.936 2.936 0 00-.152.464 2.378 2.378 0 004.637 1.06 2.935 2.935 0 00.065-.484 3.296 3.296 0 00.83.33 2.378 2.378 0 101.06-4.637z" fill="#fff8e9"/><path d="M115.417 18.523a3.16 3.16 0 01-3.148-3.438 2.369 2.369 0 01-.09-.018 3.156 3.156 0 111.408-6.152c.02.004.04.008.06.014a.958.958 0 01.013-.061 3.155 3.155 0 116.153 1.406.686.686 0 01-.015.06l.06.014h.001a3.156 3.156 0 01-1.406 6.153l-.088-.022a3.16 3.16 0 01-2.948 2.044zm-2.173-4.928a.778.778 0 01.72 1.073 2.204 2.204 0 00-.112.34 1.6 1.6 0 103.12.715 2.066 2.066 0 00.047-.355.778.778 0 011.149-.637 2.58 2.58 0 00.63.254 1.6 1.6 0 00.714-3.121 2.634 2.634 0 00-.786-.04.769.769 0 01-.725-.36.776.776 0 01-.01-.81 2.643 2.643 0 00.306-.727 1.6 1.6 0 10-3.121-.713 2.633 2.633 0 00-.04.788.777.777 0 01-1.17.735 2.642 2.642 0 00-.727-.307 1.6 1.6 0 10-.713 3.121 2.469 2.469 0 00.677.045h.041z" fill="#3e4147"/><path d="M60.808 141.428c-5.874-11.33-24.926-51.294-2.61-53.365 0 0 21.402-5.559 23.92 20.143 0 0 13.01-8.916 21.403 0 0 0 17.205 13.113 2.937 25.703 0 0-15.764 9.227-40.667 10.386a5.33 5.33 0 01-4.983-2.867z" fill="#d85927"/><path d="M65.544 145.3a6.346 6.346 0 01-5.623-3.412c-5.6-10.803-17.929-37.21-11.46-49.05 1.85-3.388 5.07-5.328 9.568-5.763.97-.236 9.262-2.054 16.196 2.787 4.747 3.314 7.673 8.925 8.709 16.691 3.7-2.05 14.047-6.675 21.26.91.868.677 8.623 6.957 8.916 15.115.157 4.37-1.859 8.435-5.99 12.08a1.052 1.052 0 01-.157.114c-.16.093-16.264 9.365-41.125 10.522a5.94 5.94 0 01-.294.006zm-2.606-56.74a20.074 20.074 0 00-4.489.47.959.959 0 01-.158.03c-3.89.36-6.531 1.91-8.075 4.736-6.177 11.307 7.225 38.964 11.48 47.172a4.366 4.366 0 004.048 2.327c23.442-1.09 38.881-9.502 40.129-10.204 3.606-3.21 5.37-6.72 5.238-10.433-.263-7.508-8.118-13.596-8.197-13.656a1.178 1.178 0 01-.122-.11c-3.2-3.4-7.514-4.432-12.818-3.074a25.939 25.939 0 00-7.291 3.214 1 1 0 01-1.56-.728c-.78-7.968-3.486-13.62-8.043-16.802a17.665 17.665 0 00-10.142-2.942z" fill="#3e4147"/><path d="M43.72 132.628c1.962-7.111 6.945-29.818-8.603-32.292 0 0-7.974-.626-7.974 7.87 0 0-6.504-1.136-8.183 7.772 0 0-4.184 10.65 22.006 18.184a2.215 2.215 0 002.754-1.534z" fill="#d85927"/><path d="M41.59 135.25a3.247 3.247 0 01-.9-.127c-14.803-4.258-20.11-9.614-21.956-13.356a8.188 8.188 0 01-.743-6.046c1.417-7.369 6.03-8.453 8.19-8.544a8.255 8.255 0 012.497-5.66 9.361 9.361 0 016.517-2.178 12.456 12.456 0 018.986 5.612c5.19 8.064 2.08 22.228.503 27.943a3.211 3.211 0 01-3.093 2.357zm-15.182-26.095c-1.453 0-5.263.628-6.466 7.009a.947.947 0 01-.051.18 6.152 6.152 0 00.684 4.632c1.7 3.354 6.666 8.196 20.667 12.225a1.217 1.217 0 00.942-.108 1.193 1.193 0 00.572-.73c1.506-5.457 4.496-18.944-.257-26.33a10.497 10.497 0 00-7.539-4.71c.01.005-.055-.001-.186-.001a7.28 7.28 0 00-4.75 1.675 6.806 6.806 0 00-1.88 5.21 1 1 0 01-1.172.985 3.667 3.667 0 00-.564-.037z" fill="#3e4147"/></g></g></svg>
