<?xml version="1.0" encoding="utf-8"?>
<!-- Generator: Adobe Illustrator 21.0.0, SVG Export Plug-In . SVG Version: 6.00 Build 0)  -->
<svg version="1.1" id="Layer_1" xmlns="http://www.w3.org/2000/svg" xmlns:xlink="http://www.w3.org/1999/xlink" x="0px" y="0px"
	 viewBox="0 0 402 313" style="enable-background:new 0 0 402 313;" xml:space="preserve">
<style type="text/css">
	.st0{fill:#E2DED6;}
	.st1{fill:none;stroke:#FFFFFF;stroke-width:0.5;stroke-miterlimit:10;}
	
		.st2{clip-path:url(#SVGID_2_);fill:none;stroke:#4869AF;stroke-width:3;stroke-linecap:round;stroke-linejoin:round;stroke-miterlimit:10;}
	
		.st3{clip-path:url(#SVGID_2_);fill:none;stroke:#801337;stroke-width:3;stroke-linecap:round;stroke-linejoin:round;stroke-miterlimit:10;}
	
		.st4{clip-path:url(#SVGID_2_);fill:none;stroke:#756796;stroke-width:3;stroke-linecap:round;stroke-linejoin:round;stroke-miterlimit:10;}
	.st5{fill:none;stroke:#000000;stroke-width:0.5;stroke-miterlimit:10;}
	.st6{font-family:'Helvetica';}
	.st7{font-size:12px;}
	.st8{letter-spacing:77;}
	.st9{letter-spacing:74;}
	.st10{font-family:'Helvetica-Oblique';}
</style>
<g>
	<rect x="39.3" y="5.3" class="st0" width="350" height="275"/>
	<path class="st1" d="M39.3,211.6h350 M39.3,142.8h350 M39.3,74.1h350 M126.8,280.3V5.3 M214.3,280.3V5.3 M301.8,280.3V5.3"/>
	<g>
		<defs>
			<rect id="SVGID_1_" x="39.3" y="5.3" width="350" height="275"/>
		</defs>
		<clipPath id="SVGID_2_">
			<use xlink:href="#SVGID_1_"  style="overflow:visible;"/>
		</clipPath>
		<polyline class="st2" points="39.3,278.5 42.8,278.3 46.3,278.1 49.8,277.8 53.3,277.6 56.8,277.3 60.3,277 63.8,276.6 
			67.3,276.2 70.8,275.8 74.3,275.4 77.8,274.8 81.3,274.3 84.8,273.7 88.3,273 91.8,272.2 95.3,271.4 98.8,270.5 102.3,269.5 
			105.8,268.4 109.3,267.3 112.8,266 116.3,264.5 119.8,263 123.3,261.3 126.8,259.4 130.3,257.4 133.8,255.2 137.3,252.9 
			140.8,250.3 144.3,247.5 147.8,244.5 151.3,241.3 154.8,237.8 158.3,234.1 161.8,230.1 165.3,225.9 168.8,221.4 172.3,216.6 
			175.8,211.6 179.3,206.3 182.8,200.8 186.3,195 189.8,189.1 193.3,182.9 196.8,176.5 200.3,169.9 203.8,163.3 207.3,156.5 
			210.8,149.7 214.3,142.8 217.8,135.9 221.3,129.1 224.8,122.3 228.3,115.7 231.8,109.1 235.3,102.7 238.8,96.6 242.3,90.6 
			245.8,84.8 249.3,79.3 252.8,74 256.3,69 259.8,64.2 263.3,59.7 266.8,55.5 270.3,51.5 273.8,47.8 277.3,44.3 280.8,41.1 
			284.3,38.1 287.8,35.3 291.3,32.7 294.8,30.4 298.3,28.2 301.8,26.2 305.3,24.3 308.8,22.6 312.3,21.1 315.8,19.6 319.3,18.3 
			322.8,17.2 326.3,16.1 329.8,15.1 333.3,14.2 336.8,13.4 340.3,12.6 343.8,11.9 347.3,11.3 350.8,10.8 354.3,10.2 357.8,9.8 
			361.3,9.4 364.8,9 368.3,8.6 371.8,8.3 375.3,8 378.8,7.8 382.3,7.5 385.8,7.3 389.3,7.1 		"/>
		<polyline class="st3" points="39.3,7.1 42.8,7.3 46.3,7.5 49.8,7.8 53.3,8 56.8,8.3 60.3,8.6 63.8,9 67.3,9.4 70.8,9.8 74.3,10.2 
			77.8,10.8 81.3,11.3 84.8,11.9 88.3,12.6 91.8,13.4 95.3,14.2 98.8,15.1 102.3,16.1 105.8,17.2 109.3,18.3 112.8,19.6 116.3,21.1 
			119.8,22.6 123.3,24.3 126.8,26.2 130.3,28.2 133.8,30.4 137.3,32.7 140.8,35.3 144.3,38.1 147.8,41.1 151.3,44.3 154.8,47.8 
			158.3,51.5 161.8,55.5 165.3,59.7 168.8,64.2 172.3,69 175.8,74 179.3,79.3 182.8,84.8 186.3,90.6 189.8,96.6 193.3,102.7 
			196.8,109.1 200.3,115.7 203.8,122.3 207.3,129.1 210.8,135.9 214.3,142.8 217.8,149.7 221.3,156.5 224.8,163.3 228.3,169.9 
			231.8,176.5 235.3,182.9 238.8,189.1 242.3,195 245.8,200.8 249.3,206.3 252.8,211.6 256.3,216.6 259.8,221.4 263.3,225.9 
			266.8,230.1 270.3,234.1 273.8,237.8 277.3,241.3 280.8,244.5 284.3,247.5 287.8,250.3 291.3,252.9 294.8,255.2 298.3,257.4 
			301.8,259.4 305.3,261.3 308.8,263 312.3,264.5 315.8,266 319.3,267.3 322.8,268.4 326.3,269.5 329.8,270.5 333.3,271.4 
			336.8,272.2 340.3,273 343.8,273.7 347.3,274.3 350.8,274.8 354.3,275.4 357.8,275.8 361.3,276.2 364.8,276.6 368.3,277 
			371.8,277.3 375.3,277.6 378.8,277.8 382.3,278.1 385.8,278.3 389.3,278.5 		"/>
		<polyline class="st4" points="39.3,278.5 42.8,278.3 46.3,278.1 49.8,277.8 53.3,277.6 56.8,277.3 60.3,277 63.8,276.7 
			67.3,276.3 70.8,275.9 74.3,275.4 77.8,275 81.3,274.4 84.8,273.8 88.3,273.2 91.8,272.5 95.3,271.7 98.8,270.9 102.3,270 
			105.8,269 109.3,267.9 112.8,266.7 116.3,265.4 119.8,264.1 123.3,262.6 126.8,261 130.3,259.3 133.8,257.5 137.3,255.6 
			140.8,253.6 144.3,251.4 147.8,249.2 151.3,246.8 154.8,244.4 158.3,241.9 161.8,239.3 165.3,236.7 168.8,234 172.3,231.4 
			175.8,228.8 179.3,226.2 182.8,223.8 186.3,221.5 189.8,219.3 193.3,217.4 196.8,215.7 200.3,214.2 203.8,213.1 207.3,212.2 
			210.8,211.7 214.3,211.6 217.8,211.7 221.3,212.2 224.8,213.1 228.3,214.2 231.8,215.7 235.3,217.4 238.8,219.3 242.3,221.5 
			245.8,223.8 249.3,226.2 252.8,228.8 256.3,231.4 259.8,234 263.3,236.7 266.8,239.3 270.3,241.9 273.8,244.4 277.3,246.8 
			280.8,249.2 284.3,251.4 287.8,253.6 291.3,255.6 294.8,257.5 298.3,259.3 301.8,261 305.3,262.6 308.8,264.1 312.3,265.4 
			315.8,266.7 319.3,267.9 322.8,269 326.3,270 329.8,270.9 333.3,271.7 336.8,272.5 340.3,273.2 343.8,273.8 347.3,274.4 
			350.8,275 354.3,275.4 357.8,275.9 361.3,276.3 364.8,276.7 368.3,277 371.8,277.3 375.3,277.6 378.8,277.8 382.3,278.1 
			385.8,278.3 389.3,278.5 		"/>
	</g>
	<path class="st5" d="M39.3,5.3v275h350 M39.3,280.3v3 M126.8,280.3v3 M214.3,280.3v3 M301.8,280.3v3 M389.1,280.3v3 M39.3,280.3h-3
		 M39.3,211.6h-3 M39.3,142.8h-3 M39.3,74.1h-3 M39.3,5.6h-3"/>
	<text transform="matrix(1 0 0 1 35.9678 294.8037)" class="st6 st7 st8">02</text>
	<text transform="matrix(1 0 0 1 126.8037 294.8037)" class="st6 st7 st9">55</text>
	<text transform="matrix(1 0 0 1 214.3037 294.8037)" class="st6 st7 st9">07</text>
	<text transform="matrix(1 0 0 1 301.8037 294.8037)" class="st6 st7">5</text>
	<text transform="matrix(1 0 0 1 379.2959 294.8037)" class="st6 st7">100</text>
	<text transform="matrix(1 0 0 1 18.2256 285.3037)" class="st6 st7">0.0</text>
	<text transform="matrix(1 0 0 1 11.5537 216.5537)" class="st6 st7">0.25</text>
	<text transform="matrix(1 0 0 1 18.2256 147.8037)" class="st6 st7">0.5</text>
	<text transform="matrix(1 0 0 1 11.5537 79.0537)" class="st6 st7">0.75</text>
	<text transform="matrix(1 0 0 1 18.2256 10.3037)" class="st6 st7">1.0</text>
	<text transform="matrix(1 0 0 1 107.4209 308.3037)"><tspan x="0" y="0" class="st10 st7">d</tspan><tspan x="6.7" y="0" class="st6 st7"> = distance from parent (arbitrary units)</tspan></text>
	<text transform="matrix(0 -1 1 0 10.3037 170.1475)" class="st6 st7">probability</text>
</g>
<text transform="matrix(1 0 0 1 49 67)"><tspan x="0" y="0" class="st6 st7">probability a seed</tspan><tspan x="0" y="14.4" class="st6 st7">sprouts at distance </tspan><tspan x="104.1" y="14.4" class="st10 st7">d</tspan></text>
<text transform="matrix(1 0 0 1 169.6416 249)"><tspan x="0" y="0" class="st6 st7">probability a tree</tspan><tspan x="-13" y="14.4" class="st6 st7">matures at distance </tspan><tspan x="95" y="14.4" class="st10 st7">d</tspan></text>
<text transform="matrix(1 0 0 1 268.2598 67)"><tspan x="0" y="0" class="st6 st7">probability a seedling</tspan><tspan x="-2.6" y="14.4" class="st6 st7">survives at distance </tspan><tspan x="106.1" y="14.4" class="st10 st7">d</tspan></text>
</svg>
